<svg width="534" height="119" viewBox="0 0 534 119" fill="none" xmlns="http://www.w3.org/2000/svg">
    <path id="introSelected"
        d="M8.72632 112.405C8.03951 104.85 5.51615 97.5992 5.03267 89.9173C4.35209 79.1037 4.81539 68.1565 4.81539 57.3263C4.81539 45.1835 5.85386 34.9457 12.42 24.4093C18.0895 15.3118 22.5916 13.1694 32.8437 10.5038C57.8513 4.00186 84.4542 5.83247 110.03 5.83247C199.042 5.83247 288.442 7.87002 377.331 2.89927C410.003 1.07221 442.925 1.69742 475.647 1.92154C484.154 1.97981 493.036 2.27917 501.503 3.11655C503.77 3.34077 512.753 3.63063 514.267 5.39792C515.725 7.09909 518.131 7.52545 519.591 9.30884C522.006 12.2615 523.533 16.0888 524.968 19.575C530.339 32.6184 531.812 45.6486 531.812 59.6076C531.812 69.9946 533.017 87.6265 524.859 95.7837C518.756 101.887 509.201 103.866 501.014 104.963C476.941 108.19 452.859 110.205 428.607 111.427C403.172 112.71 377.7 114.596 352.236 115.121C320.438 115.777 288.874 114.406 257.07 116.099C226.102 117.747 195.269 116.409 164.294 116.316C141.398 116.247 118.667 116.064 95.7987 114.904C69.8118 113.586 43.6341 110.45 17.6345 110.45C15.3163 110.45 3.09187 110.914 1.8822 108.494"
        stroke="#5B5B5B" stroke-width="3" stroke-linecap="round" />
</svg>